<svg id="Livello_1" xmlns="http://www.w3.org/2000/svg" viewBox="0 0 68.2 79.1"><style>.st0{fill:#fff}</style><path class="st0" d="M9.7 23.4c-2.8 0-4.9-2.4-5.9-3.7 1-1.3 3.1-3.7 5.9-3.7 2.6 0 5.7 2.1 7.6 3.7-1.8 1.6-4.9 3.7-7.6 3.7zM19.8 3.9c1.3 1 3.7 3.1 3.7 5.9 0 2.6-2.1 5.7-3.7 7.6-1.6-1.9-3.7-5-3.7-7.6 0-2.8 2.4-5 3.7-5.9z"/><path d="M64.5 56c-1.8-6.6-7.5-11.1-13.9-11.6.2 1.5.3 2.9.3 4.4 0 .9-.7 1.6-1.6 1.6-.9 0-1.6-.7-1.6-1.6 0-1.5-.1-2.9-.4-4.4-.7.1-1.4.2-2 .4-8.4 2.2-13.4 10.9-11.1 19.3 2.2 8.4 10.9 13.4 19.3 11.1 8.2-2.2 13.2-10.8 11-19.2zm-32-4.7c-2.6-3.9-6.8-6.4-11.5-6.8v3.1c0 .9-.7 1.6-1.6 1.6-.9 0-1.6-.8-1.6-1.7l.1-3.1c-.8.1-1.6.2-2.4.4C7 47.2 2 55.8 4.2 64.2c2.2 8.4 10.9 13.4 19.3 11.1 3.8-1 6.9-3.4 8.9-6.4-.6-1.2-1.2-2.5-1.5-3.9-1.3-4.8-.6-9.6 1.6-13.7z" fill="#ed6b6a"/><path d="M67.6 55.2c-2.2-8.3-9.6-13.8-17.7-14.1-1.4-5.3-4.1-10.2-8.1-14.1-5-5-11.5-8-18.6-8.7 1.6-2.2 3.5-5.4 3.5-8.6C26.7 4 20.9.6 20.6.4l-.8-.4-.8.5c-.2.1-6.1 3.6-6.1 9.3 0 1.3.3 2.7.9 4-1.3-.5-2.6-.9-4-.9C4.1 12.9.7 18.7.5 19l-.5.8.5.8c.1.2 3.6 6.1 9.3 6.1 3.1 0 6.2-1.8 8.4-3.4l-.3 17.9c-1.1.1-2.2.3-3.3.6C4.4 44.5-1.6 54.9 1.1 65c2.3 8.5 10 14.1 18.3 14.1 1.6 0 3.3-.2 4.9-.6 4.1-1.1 7.6-3.5 10-6.6 3.6 4.5 9.1 7.3 14.9 7.3 1.6 0 3.3-.2 4.9-.6 10.2-2.9 16.2-13.3 13.5-23.4zM19.8 3.9c1.3 1 3.7 3.1 3.7 5.9 0 2.6-2.1 5.7-3.7 7.6-1.6-1.9-3.7-5-3.7-7.6 0-2.8 2.4-5 3.7-5.9zM9.7 23.4c-2.8 0-4.9-2.4-5.9-3.7 1-1.3 3.1-3.7 5.9-3.7 2.6 0 5.7 2.1 7.6 3.7-1.8 1.6-4.9 3.7-7.6 3.7zM30.9 65c.4 1.4.9 2.7 1.5 3.9-2 3-5.1 5.4-8.9 6.4-8.4 2.2-17-2.7-19.3-11.1C2 55.8 7 47.2 15.4 44.9c.8-.2 1.6-.4 2.4-.4l-.1 3.1c0 .9.7 1.6 1.6 1.7.9 0 1.6-.7 1.6-1.6l.1-3.2c4.6.5 8.8 3 11.5 6.8-2.2 4.1-2.9 8.9-1.6 13.7zm-9.8-23.8l.3-19.7c6.9.3 13.2 3.1 18.1 7.9 3.4 3.4 5.8 7.5 7.1 12-.7.1-1.5.3-2.2.4-4.1 1.1-7.6 3.5-10 6.6-3.3-4.1-8.1-6.8-13.3-7.2zm32.2 34.1c-8.4 2.2-17-2.7-19.3-11.1-2.2-8.4 2.7-17 11.1-19.3.7-.2 1.4-.3 2-.4.2 1.4.4 2.9.4 4.4 0 .9.7 1.6 1.6 1.6.9 0 1.6-.7 1.6-1.6 0-1.5-.1-3-.3-4.4 6.4.5 12.2 5 13.9 11.6 2.4 8.3-2.6 16.9-11 19.2z"/><path class="st0" d="M26.7 69.6c-2.1 1.6-4.7 2.5-7.3 2.5-.5 0-1.1 0-1.6-.1-3.2-.4-6-2-8-4.6-2.5-3.4-3.1-7.9-1.5-11.8.3-.7 1.2-1.1 1.9-.8.7.3 1.1 1.2.8 1.9-1.2 3-.7 6.4 1.2 8.9 1.5 1.9 3.6 3.2 6 3.5 2.4.3 4.8-.3 6.7-1.8.6-.5 1.6-.4 2.1.3.5.6.4 1.5-.3 2z"/><circle class="st0" cx="13" cy="51.7" r="1.5"/><circle class="st0" cx="42.9" cy="51.7" r="1.5"/><path class="st0" d="M56.6 69.6c-2.1 1.6-4.7 2.5-7.3 2.5-.5 0-1.1 0-1.6-.1-3.2-.4-6-2-8-4.6-2.6-3.4-3.2-7.9-1.6-11.8.3-.7 1.2-1.1 1.9-.8.7.3 1.1 1.2.8 1.9-1.2 3-.7 6.4 1.2 8.9 1.5 1.9 3.6 3.2 6 3.5 2.4.3 4.8-.3 6.7-1.8.6-.5 1.6-.4 2.1.3.5.6.4 1.5-.2 2z"/></svg>